<svg width="37" height="37" viewBox="0 0 37 37" fill="none" xmlns="http://www.w3.org/2000/svg">
<path fill-rule="evenodd" clip-rule="evenodd" d="M18.5 1C8.83125 1 1 9.02933 1 18.9426C1 26.8823 6.00937 33.5883 12.9656 35.9657C13.8406 36.1227 14.1687 35.5844 14.1687 35.1134C14.1687 34.6873 14.1469 33.2743 14.1469 31.7716C9.75 32.6015 8.6125 30.6726 8.2625 29.6634C8.06563 29.1475 7.2125 27.5551 6.46875 27.129C5.85625 26.7925 4.98125 25.9627 6.44688 25.9403C7.825 25.9178 8.80938 27.2411 9.1375 27.7794C10.7125 30.4932 13.2281 29.7307 14.2344 29.2597C14.3875 28.0934 14.8469 27.3084 15.35 26.8598C11.4562 26.4113 7.3875 24.8637 7.3875 18.0007C7.3875 16.0494 8.06563 14.4346 9.18125 13.1786C9.00625 12.73 8.39375 10.8909 9.35625 8.42377C9.35625 8.42377 10.8219 7.95277 14.1687 10.2629C15.5687 9.85918 17.0562 9.65732 18.5437 9.65732C20.0312 9.65732 21.5187 9.85918 22.9187 10.2629C26.2656 7.93035 27.7312 8.42377 27.7312 8.42377C28.6937 10.8909 28.0813 12.73 27.9062 13.1786C29.0219 14.4346 29.7 16.027 29.7 18.0007C29.7 24.8861 25.6094 26.4113 21.7156 26.8598C22.35 27.4205 22.8969 28.4971 22.8969 30.1792C22.8969 32.5791 22.875 34.5079 22.875 35.1134C22.875 35.5844 23.2031 36.1451 24.0781 35.9657C27.5522 34.7632 30.571 32.4741 32.7097 29.4202C34.8483 26.3666 35.9991 22.7022 36 18.9426C36 9.02933 28.1688 1 18.5 1Z" stroke="#989999" stroke-width="2" stroke-linejoin="round"/>
</svg>
