<svg width="37" height="37" viewBox="0 0 37 37" fill="none" xmlns="http://www.w3.org/2000/svg">
<path d="M13.25 36H23.75C32.5 36 36 32.5 36 23.75V13.25C36 4.5 32.5 1 23.75 1H13.25C4.5 1 1 4.5 1 13.25V23.75C1 32.5 4.5 36 13.25 36Z" stroke="#989999" stroke-width="2" stroke-linecap="round" stroke-linejoin="round"/>
<path d="M18.5 23.6041C21.319 23.6041 23.6042 21.3189 23.6042 18.5C23.6042 15.681 21.319 13.3958 18.5 13.3958C15.6811 13.3958 13.3958 15.681 13.3958 18.5C13.3958 21.3189 15.6811 23.6041 18.5 23.6041Z" stroke="#989999" stroke-width="2" stroke-linecap="round" stroke-linejoin="round"/>
<path d="M26.7193 11.2083H26.7362" stroke="#989999" stroke-width="2" stroke-linecap="round" stroke-linejoin="round"/>
</svg>
