<svg width="35" height="35" viewBox="0 0 35 35" fill="none" xmlns="http://www.w3.org/2000/svg">
<g clip-path="url(#clip0_1_28)">
<path d="M32.2656 0H2.73438C1.22363 0 0 1.22363 0 2.73438V32.2656C0 33.7764 1.22363 35 2.73438 35H32.2656C33.7764 35 35 33.7764 35 32.2656V2.73438C35 1.22363 33.7764 0 32.2656 0ZM32.9492 32.2656C32.9492 32.6416 32.6416 32.9492 32.2656 32.9492H2.73438C2.3584 32.9492 2.05078 32.6416 2.05078 32.2656V2.73438C2.05078 2.3584 2.3584 2.05078 2.73438 2.05078H32.2656C32.6416 2.05078 32.9492 2.3584 32.9492 2.73438V32.2656Z" fill="#989999"/>
<path d="M12.6055 13.9043H9.19434V24.8213H12.6055V13.9043Z" fill="#989999"/>
<path d="M21.9229 13.8018C19.9678 13.8018 18.7441 14.8682 18.5186 15.6201V13.9043H14.6836C14.7314 14.8135 14.6836 24.8213 14.6836 24.8213H18.5186V18.9219C18.5186 18.5869 18.5049 18.2588 18.6006 18.0264C18.8604 17.3701 19.4277 16.6865 20.4463 16.6865C21.7793 16.6865 22.3809 17.6982 22.3809 19.1748V24.8213H26.25V18.751C26.25 15.374 24.3496 13.8018 21.9229 13.8018Z" fill="#989999"/>
<path d="M10.8281 8.75C9.57031 8.75 8.74316 9.56348 8.74316 10.6436C8.74316 11.7031 9.54297 12.5371 10.7803 12.5371H10.8076C12.0928 12.5371 12.8926 11.6963 12.8857 10.6436C12.8584 9.56348 12.0859 8.75 10.8281 8.75Z" fill="#989999"/>
</g>
<defs>
<clipPath id="clip0_1_28">
<rect width="35" height="35" fill="white"/>
</clipPath>
</defs>
</svg>
