<svg width="45" height="45" viewBox="0 0 45 45" fill="none" xmlns="http://www.w3.org/2000/svg">
<g clip-path="url(#clip0_8_43)">
<path d="M8.49124 14.6895C8.49124 14.2596 8.27627 13.9013 7.91799 13.6147V1.36147H17.9498V27.2293H19.2396V0H6.62818V13.6146C6.19824 13.8296 5.98328 14.2596 5.98328 14.6895C5.98328 15.406 6.55652 15.9793 7.27308 15.9793C7.91799 15.9793 8.49124 15.406 8.49124 14.6895L8.49124 14.6895ZM20.6011 33.3201C20.1712 33.3201 19.8129 33.1051 19.5263 32.8185C19.7412 32.6035 19.8846 32.3169 19.8846 32.0303C19.8846 31.3137 19.3113 30.7405 18.5947 30.7405C17.8782 30.7405 17.3049 31.3137 17.3049 32.0303C17.3049 32.6035 17.7349 33.1051 18.2365 33.2484C18.6664 34.0366 19.5979 34.6099 20.6011 34.6099H37.7269V43.7102H18.5231C12.7189 43.7102 7.91799 38.9092 7.91799 33.0334V20.1354H6.62818V33.0334C6.62818 39.6258 12.0024 45 18.5231 45H39.0167V33.3201H20.6011ZM9.27946 2.65128V33.0334C9.27946 38.1927 13.4355 42.3487 18.5231 42.3487H36.3654V35.9713H20.6011C18.3798 35.9713 16.5884 34.1799 16.5884 31.9586V2.65128H9.27946Z" fill="url(#paint0_linear_8_43)"/>
</g>
<defs>
<linearGradient id="paint0_linear_8_43" x1="22.5" y1="0" x2="22.5" y2="45" gradientUnits="userSpaceOnUse">
<stop stop-color="#BE6CFF"/>
<stop offset="1" stop-color="#8F00FF"/>
</linearGradient>
<clipPath id="clip0_8_43">
<rect width="45" height="45" fill="white"/>
</clipPath>
</defs>
</svg>
